# Made in Blockbench 4.10.4

o cube
v 0.1875 0.3125 0.1875
v 0.1875 0.3125 -0.1875
v 0.1875 -0.125 0.1875
v 0.1875 -0.125 -0.1875
v -0.1875 0.3125 -0.1875
v -0.1875 0.3125 0.1875
v -0.1875 -0.125 -0.1875
v -0.1875 -0.125 0.1875
vt 0.3125 0.6875
vt 0.000 0.6875
vt 0.000 1.000
vt 0.3125 1.000
vt 0.3125 0.6875
vt 0.000 0.6875
vt 0.000 1.000
vt 0.3125 1.000
vt 0.3125 0.6875
vt 0.000 0.6875
vt 0.000 1.000
vt 0.3125 1.000
vt 0.3125 0.6875
vt 0.000 0.6875
vt 0.000 1.000
vt 0.3125 1.000
vt 0.3125 0.6875
vt 0.000 0.6875
vt 0.000 1.000
vt 0.3125 1.000
vt 0.3125 0.6875
vt 0.000 0.6875
vt 0.000 1.000
vt 0.3125 1.000
vn 0.000 0.000 -1.000
vn 1.000 0.000 0.000
vn 0.000 0.000 1.000
vn -1.000 0.000 0.000
vn 0.000 1.000 0.000
vn 0.000 -1.000 0.000

f 4/4/1 7/3/1 5/2/1 2/1/1
f 3/8/2 4/7/2 2/6/2 1/5/2
f 8/12/3 3/11/3 1/10/3 6/9/3
f 7/16/4 8/15/4 6/14/4 5/13/4
f 6/20/5 1/19/5 2/18/5 5/17/5
f 7/24/6 4/23/6 3/22/6 8/21/6